<svg id="calendar" xmlns="http://www.w3.org/2000/svg" viewBox="0 0 128 128"><defs><style>.cls-1{fill:#3544b1;}.cls-2{fill:#fff;}</style></defs><title>calendar_recurring_events</title><path class="cls-1" d="M64,3.64a60.18,60.18,0,1,0,60,60.18A60.09,60.09,0,0,0,64,3.64Z"/><rect class="cls-2" x="52.42" y="52.64" width="10.16" height="6.93"/><rect class="cls-2" x="65.42" y="52.64" width="10.16" height="6.93"/><rect class="cls-2" x="78.42" y="52.64" width="10.16" height="6.93"/><rect class="cls-2" x="39.42" y="62.34" width="10.16" height="6.93"/><rect class="cls-2" x="52.42" y="62.34" width="10.16" height="6.93"/><rect class="cls-2" x="65.42" y="62.34" width="10.16" height="6.93"/><rect class="cls-2" x="78.42" y="62.34" width="10.16" height="6.93"/><rect class="cls-2" x="39.42" y="72.05" width="10.16" height="6.93"/><rect class="cls-2" x="52.42" y="72.05" width="10.16" height="6.93"/><rect class="cls-2" x="39.42" y="81.75" width="10.16" height="6.93"/><rect class="cls-2" x="52.42" y="81.75" width="10.16" height="6.93"/><path class="cls-2" d="M33.9,92.33V49H94.09V72h4.72V32.88H94.1V26.46H89v6.42H42V26.46H36.88v6.42H29.19V97.07H65V92.33Zm0-55H64v7.78H33.9Z"/><g id="Icons_with_numbers" data-name="Icons with numbers"><g id="Group"><path id="Rectangle_259" data-name="Rectangle 259" class="cls-2" d="M97.62,82a9.89,9.89,0,0,1,1.15,4.66,10,10,0,0,1-10,10h-12v4l-8-6,8-6v4h12a6,6,0,0,0,6-6,6.14,6.14,0,0,0-.41-2.2ZM70.69,86.65a6.14,6.14,0,0,0,.41,2.2l-3.28,2.46A10,10,0,0,1,76.7,76.62h12v-4l8,6-8,6v-4h-12A6,6,0,0,0,70.69,86.65Z"/></g></g></svg>